<?xml version="1.0" encoding="UTF-8"?>
<!DOCTYPE svg PUBLIC "-//W3C//DTD SVG 1.1//EN" "http://www.w3.org/Graphics/SVG/1.1/DTD/svg11.dtd">
<svg xmlns="http://www.w3.org/2000/svg" version="1.1" width="635px" height="393px" style="shape-rendering:geometricPrecision; text-rendering:geometricPrecision; image-rendering:optimizeQuality; fill-rule:evenodd; clip-rule:evenodd" xmlns:xlink="http://www.w3.org/1999/xlink">
<g><path style="opacity:0.298" fill="#7b736b" d="M 482.5,12.5 C 502.244,14.742 513.744,25.742 517,45.5C 517.667,84.8333 517.667,124.167 517,163.5C 516.461,166.529 515.794,169.529 515,172.5C 514.623,173.942 513.79,174.942 512.5,175.5C 512.514,172.126 513.181,168.626 514.5,165C 514.815,125.701 514.481,86.3673 513.5,47C 516.167,46.3333 516.167,45.6667 513.5,45C 514.769,42.8615 514.769,40.6948 513.5,38.5C 511.476,36.3102 509.643,33.9768 508,31.5C 507.316,30.2161 507.483,29.0495 508.5,28C 505.709,26.8863 502.709,26.7197 499.5,27.5C 499.739,25.5328 499.406,23.6995 498.5,22C 496.892,21.342 495.725,21.842 495,23.5C 493.167,22.3333 491.333,21.1667 489.5,20C 490.5,19.6667 491.5,19.3333 492.5,19C 490.242,17.6087 488.242,15.942 486.5,14C 425.524,14.3067 364.524,14.64 303.5,15C 300.167,15.3333 296.833,15.6667 293.5,16C 295.881,16.2233 297.547,17.39 298.5,19.5C 294.673,17.722 290.673,16.222 286.5,15C 285.167,14.3333 285.167,13.6667 286.5,13C 351.832,12.5 417.166,12.3333 482.5,12.5 Z"/></g>
<g><path style="opacity:1" fill="#91887f" d="M 512.5,175.5 C 511.932,179.237 510.265,182.404 507.5,185C 503.016,189.078 498.016,192.411 492.5,195C 482.549,196.198 472.549,196.865 462.5,197C 476.024,213.689 489.357,230.523 502.5,247.5C 501.833,247.833 501.167,248.167 500.5,248.5C 465.955,231.894 431.622,214.728 397.5,197C 391.843,196.501 386.176,196.334 380.5,196.5C 380.802,199.059 380.468,201.393 379.5,203.5C 379.768,200.881 379.435,198.381 378.5,196C 340.167,195.667 301.833,195.333 263.5,195C 249.667,190.5 240.5,181.333 236,167.5C 235.5,150.503 235.333,133.503 235.5,116.5C 251.206,129.011 268.872,132.511 288.5,127C 320.084,114.53 333.584,91.3635 329,57.5C 324.292,40.4005 314.126,27.7339 298.5,19.5C 297.547,17.39 295.881,16.2233 293.5,16C 296.833,15.6667 300.167,15.3333 303.5,15C 364.524,14.64 425.524,14.3067 486.5,14C 488.242,15.942 490.242,17.6087 492.5,19C 491.5,19.3333 490.5,19.6667 489.5,20C 491.333,21.1667 493.167,22.3333 495,23.5C 495.725,21.842 496.892,21.342 498.5,22C 499.406,23.6995 499.739,25.5328 499.5,27.5C 502.709,26.7197 505.709,26.8863 508.5,28C 507.483,29.0495 507.316,30.2161 508,31.5C 509.643,33.9768 511.476,36.3102 513.5,38.5C 514.769,40.6948 514.769,42.8615 513.5,45C 516.167,45.6667 516.167,46.3333 513.5,47C 514.481,86.3673 514.815,125.701 514.5,165C 513.181,168.626 512.514,172.126 512.5,175.5 Z"/></g>
<g><path style="opacity:1" fill="#676258" d="M 482.5,12.5 C 417.166,12.3333 351.832,12.5 286.5,13C 285.167,13.6667 285.167,14.3333 286.5,15C 290.673,16.222 294.673,17.722 298.5,19.5C 314.126,27.7339 324.292,40.4005 329,57.5C 333.584,91.3635 320.084,114.53 288.5,127C 268.872,132.511 251.206,129.011 235.5,116.5C 216.979,99.4595 210.313,78.4595 215.5,53.5C 216.338,53.1583 216.672,52.4916 216.5,51.5C 222.491,34.6732 233.824,22.8399 250.5,16C 255.375,14.198 260.375,12.8647 265.5,12C 338.001,11.1678 410.334,11.3345 482.5,12.5 Z"/></g>
<g><path style="opacity:1" fill="#d5d5d2" d="M 247.5,30.5 C 257.837,29.6767 267.837,30.8434 277.5,34C 300.767,49.9799 305.6,70.4799 292,95.5C 275.817,113.404 256.983,116.904 235.5,106C 215.819,88.3279 212.652,68.1612 226,45.5C 232.132,38.8643 239.299,33.8643 247.5,30.5 Z"/></g>
<g><path style="opacity:0.055" fill="#282214" d="M 216.5,51.5 C 216.672,52.4916 216.338,53.1583 215.5,53.5C 186.833,53.5 158.167,53.5 129.5,53.5C 158.402,52.8256 187.402,52.1589 216.5,51.5 Z"/></g>
<g><path style="opacity:1" fill="#c1b5a7" d="M 129.5,53.5 C 158.167,53.5 186.833,53.5 215.5,53.5C 210.313,78.4595 216.979,99.4595 235.5,116.5C 235.333,133.503 235.5,150.503 236,167.5C 240.5,181.333 249.667,190.5 263.5,195C 301.833,195.333 340.167,195.667 378.5,196C 379.435,198.381 379.768,200.881 379.5,203.5C 379.696,213.776 375.696,221.776 367.5,227.5C 365.609,228.536 363.776,228.536 362,227.5C 359.251,230.796 355.751,232.962 351.5,234C 322.708,235.864 294.041,237.03 265.5,237.5C 249.163,237.333 232.83,237.5 216.5,238C 193.726,250.054 170.726,261.554 147.5,272.5C 145.801,272.34 144.134,272.506 142.5,273C 140.6,276.308 137.933,277.141 134.5,275.5C 133.494,275.938 133.494,276.604 134.5,277.5C 133.007,278.141 132.007,279.141 131.5,280.5C 129.669,281.052 128.003,281.052 126.5,280.5C 124.528,281.305 123.028,282.639 122,284.5C 121.075,283.953 120.242,283.287 119.5,282.5C 121.455,280.174 123.455,277.841 125.5,275.5C 124.873,274.583 124.539,273.583 124.5,272.5C 133.453,261.204 142.453,249.871 151.5,238.5C 143.855,237.669 136.188,237.169 128.5,237C 110.805,233.235 100.638,222.402 98,204.5C 97.3333,164.5 97.3333,124.5 98,84.5C 101.782,67.2167 112.282,56.8834 129.5,53.5 Z"/></g>
<g><path style="opacity:1" fill="#252122" d="M 237.5,49.5 C 254.742,47.5997 264.742,55.0997 267.5,72C 265.757,86.2449 257.757,93.7449 243.5,94.5C 229.881,93.5475 222.547,86.2142 221.5,72.5C 221.697,61.0632 227.03,53.3966 237.5,49.5 Z"/></g>
<g><path style="opacity:1" fill="#3f2716" d="M 254.5,68.5 C 254.5,68.1667 254.5,67.8333 254.5,67.5C 254.5,67.1667 254.5,66.8333 254.5,66.5C 256.826,59.9955 254.493,57.8288 247.5,60C 243.706,66.127 245.372,69.2937 252.5,69.5C 249.857,70.9791 247.357,70.6458 245,68.5C 244.501,64.5138 244.334,60.5138 244.5,56.5C 248.106,56.2108 251.606,56.5442 255,57.5C 257.093,61.5231 256.927,65.1898 254.5,68.5 Z"/></g>
<g><path style="opacity:1" fill="#252021" d="M 429.5,58.5 C 444.18,58.9983 450.014,66.3317 447,80.5C 441.166,87.3751 433.999,89.2085 425.5,86C 416.179,77.28 416.179,68.6133 425.5,60C 427.058,59.79 428.391,59.29 429.5,58.5 Z"/></g>
<g><path style="opacity:1" fill="#b86a2d" d="M 254.5,66.5 C 255.493,61.3248 253.493,59.4914 248.5,61C 246.398,62.7328 246.065,64.7328 247.5,67C 249.81,67.4966 252.143,67.6633 254.5,67.5C 254.5,67.8333 254.5,68.1667 254.5,68.5C 254.158,69.3382 253.492,69.6716 252.5,69.5C 245.372,69.2937 243.706,66.127 247.5,60C 254.493,57.8288 256.826,59.9955 254.5,66.5 Z"/></g>
<g><path style="opacity:1" fill="#e87921" d="M 254.5,66.5 C 254.5,66.8333 254.5,67.1667 254.5,67.5C 252.143,67.6633 249.81,67.4966 247.5,67C 246.065,64.7328 246.398,62.7328 248.5,61C 253.493,59.4914 255.493,61.3248 254.5,66.5 Z"/></g>
<g><path style="opacity:1" fill="#c1b5a8" d="M 458.5,102.5 C 459.124,102.917 459.457,103.584 459.5,104.5C 457.201,122.797 449.535,138.464 436.5,151.5C 419.641,164.774 400.641,168.941 379.5,164C 374.313,161.382 368.813,159.549 363,158.5C 357.098,154.797 350.931,151.463 344.5,148.5C 343.614,147.675 343.281,146.675 343.5,145.5C 365.31,143.957 386.644,139.79 407.5,133C 426.523,125.866 443.523,115.699 458.5,102.5 Z"/></g>
<g><path style="opacity:0.059" fill="#999289" d="M 367.5,227.5 C 362.55,232.477 356.55,235.644 349.5,237C 321.502,237.5 293.502,237.667 265.5,237.5C 294.041,237.03 322.708,235.864 351.5,234C 355.751,232.962 359.251,230.796 362,227.5C 363.776,228.536 365.609,228.536 367.5,227.5 Z"/></g>
<g><path style="opacity:0.872" fill="#847c74" d="M 147.5,272.5 C 142.759,276.204 137.426,278.87 131.5,280.5C 132.007,279.141 133.007,278.141 134.5,277.5C 133.494,276.604 133.494,275.938 134.5,275.5C 137.933,277.141 140.6,276.308 142.5,273C 144.134,272.506 145.801,272.34 147.5,272.5 Z"/></g>
<g><path style="opacity:0.968" fill="#a0978c" d="M 124.5,272.5 C 124.539,273.583 124.873,274.583 125.5,275.5C 123.455,277.841 121.455,280.174 119.5,282.5C 120.242,283.287 121.075,283.953 122,284.5C 123.028,282.639 124.528,281.305 126.5,280.5C 128.003,281.052 129.669,281.052 131.5,280.5C 125.846,284.826 119.512,287.826 112.5,289.5C 112.343,288.127 112.51,286.793 113,285.5C 116.699,280.973 120.532,276.639 124.5,272.5 Z"/></g>
<g><path style="opacity:0.169" fill="#878771" d="M 33.5,318.5 C 37.6463,317.353 41.9796,317.186 46.5,318C 48.0664,318.608 49.3998,319.442 50.5,320.5C 45.0019,318.79 39.3352,318.124 33.5,318.5 Z"/></g>
<g><path style="opacity:0.346" fill="#b3b392" d="M 624.5,319.5 C 624.167,319.5 623.833,319.5 623.5,319.5C 618.404,319.661 613.738,320.661 609.5,322.5C 606.611,322.001 605.944,320.501 607.5,318C 612.5,317.333 617.5,317.333 622.5,318C 623.416,318.278 624.082,318.778 624.5,319.5 Z"/></g>
<g><path style="opacity:0.973" fill="#bdbaae" d="M 358.5,337.5 C 356.764,332.089 355.764,326.422 355.5,320.5C 352.102,320.18 348.768,320.513 345.5,321.5C 344.392,324.059 343.059,326.392 341.5,328.5C 341.721,317.779 346.721,314.612 356.5,319C 357.921,325.042 358.588,331.209 358.5,337.5 Z"/></g>
<g><path style="opacity:1" fill="#f6f5ef" d="M 583.5,339.5 C 586.412,345.799 588.412,352.465 589.5,359.5C 589.409,365.875 590.742,371.875 593.5,377.5C 587.167,378.833 580.833,378.833 574.5,377.5C 575.622,376.053 577.122,375.053 579,374.5C 579.667,372.167 579.667,369.833 579,367.5C 578.617,366.944 578.117,366.611 577.5,366.5C 576.699,364.958 576.366,363.292 576.5,361.5C 573.721,361.279 571.054,361.612 568.5,362.5C 567.792,364.378 566.626,366.045 565,367.5C 564.861,370.825 563.861,373.825 562,376.5C 561.667,376.167 561.333,375.833 561,375.5C 558.483,379.503 554.983,382.17 550.5,383.5C 550.17,386.109 548.67,387.776 546,388.5C 548.245,384.01 550.578,379.343 553,374.5C 553.696,371.522 554.196,368.522 554.5,365.5C 555.458,365.047 556.292,364.381 557,363.5C 557.498,360.183 557.665,356.85 557.5,353.5C 559.468,349.983 560.468,345.983 560.5,341.5C 562.074,336.395 563.741,331.228 565.5,326C 565.561,323.739 564.894,321.739 563.5,320C 567.821,319.501 572.154,319.334 576.5,319.5C 576.59,321.696 576.923,323.863 577.5,326C 577.245,327.326 576.578,328.326 575.5,329C 579.539,331.528 582.205,335.028 583.5,339.5 Z M 571.5,348.5 C 572.167,348.833 572.833,349.167 573.5,349.5C 572.377,350.757 571.711,350.424 571.5,348.5 Z"/></g>
<g><path style="opacity:1" fill="#faf9f3" d="M 33.5,318.5 C 39.3352,318.124 45.0019,318.79 50.5,320.5C 51.0198,323.193 52.5198,325.193 55,326.5C 56.0086,328.025 56.5086,329.692 56.5,331.5C 55.5,331.5 54.5,331.5 53.5,331.5C 53.5,332.833 53.5,334.167 53.5,335.5C 52.1266,335.343 50.7932,335.51 49.5,336C 49.8333,336.333 50.1667,336.667 50.5,337C 49.1279,337.402 47.7946,337.902 46.5,338.5C 45.0815,337.995 44.4148,336.995 44.5,335.5C 46.3187,328.811 43.652,325.978 36.5,327C 35.6634,328.011 35.33,329.178 35.5,330.5C 34.1568,333.543 32.8234,336.543 31.5,339.5C 30.8826,339.611 30.3826,339.944 30,340.5C 29.8333,343.167 29.6667,345.833 29.5,348.5C 29.6956,353.966 30.3623,359.299 31.5,364.5C 34.148,365.684 36.8147,367.018 39.5,368.5C 41.1705,368.332 42.5039,367.665 43.5,366.5C 44.925,365.078 45.925,363.411 46.5,361.5C 47.4959,361.586 48.3292,361.252 49,360.5C 49.4955,358.527 49.6621,356.527 49.5,354.5C 45.8333,354.5 42.1667,354.5 38.5,354.5C 38.7947,352.265 38.4614,350.265 37.5,348.5C 37.5,347.833 37.8333,347.5 38.5,347.5C 44.5092,347.334 50.5092,347.501 56.5,348C 57.756,348.417 58.4226,349.25 58.5,350.5C 57.8153,356.567 57.1486,362.734 56.5,369C 58.1134,371.228 58.78,373.728 58.5,376.5C 57.1667,376.5 55.8333,376.5 54.5,376.5C 54.3713,378.216 54.038,379.883 53.5,381.5C 52.2876,382.23 51.2876,383.23 50.5,384.5C 48.7271,380.776 48.0604,377.109 48.5,373.5C 43.0548,375.345 37.3882,376.012 31.5,375.5C 31.5,374.167 31.5,372.833 31.5,371.5C 29.2166,371.392 27.2166,370.559 25.5,369C 24.1966,365.929 22.5299,363.096 20.5,360.5C 19.5021,352.193 19.1688,343.86 19.5,335.5C 19.4152,332.351 20.4152,329.684 22.5,327.5C 25.2427,325.761 27.2427,323.427 28.5,320.5C 30.0495,319.559 31.7162,318.893 33.5,318.5 Z"/></g>
<g><path style="opacity:0.999" fill="#fbfbf7" d="M 339.5,334.5 C 341.074,332.898 341.741,330.898 341.5,328.5C 343.059,326.392 344.392,324.059 345.5,321.5C 348.768,320.513 352.102,320.18 355.5,320.5C 355.764,326.422 356.764,332.089 358.5,337.5C 359.167,337.5 359.5,337.833 359.5,338.5C 358.848,339.449 358.514,340.615 358.5,342C 359.399,353.721 360.399,365.221 361.5,376.5C 358.833,376.167 356.167,375.833 353.5,375.5C 350.947,365.518 349.281,355.518 348.5,345.5C 347.414,345.62 346.747,346.287 346.5,347.5C 345.616,351.473 344.949,355.473 344.5,359.5C 343.691,360.469 342.691,361.302 341.5,362C 341.833,362.333 342.167,362.667 342.5,363C 341.716,365.582 340.049,367.249 337.5,368C 338.336,369.243 338.003,370.41 336.5,371.5C 334.84,370.828 333.507,369.828 332.5,368.5C 332.356,364.489 332.023,360.489 331.5,356.5C 329.283,352.6 328.116,348.267 328,343.5C 326.89,341.963 325.39,341.297 323.5,341.5C 323.177,348.022 323.51,354.355 324.5,360.5C 324.167,361.167 323.833,361.833 323.5,362.5C 322.778,362.918 322.278,363.584 322,364.5C 321.501,368.152 321.335,371.818 321.5,375.5C 321.5,375.833 321.5,376.167 321.5,376.5C 319.55,378.465 317.216,379.799 314.5,380.5C 314.5,381.5 314.5,382.5 314.5,383.5C 311.554,386.313 308.221,388.646 304.5,390.5C 302.5,390.5 301.5,389.5 301.5,387.5C 304.777,384.899 306.777,381.565 307.5,377.5C 309.136,376.251 310.303,374.584 311,372.5C 311.499,368.514 311.666,364.514 311.5,360.5C 311.678,353.251 312.678,346.251 314.5,339.5C 317.094,333.571 318.094,327.237 317.5,320.5C 320.833,320.5 324.167,320.5 327.5,320.5C 327.337,322.857 327.503,325.19 328,327.5C 328.94,330.908 330.107,334.242 331.5,337.5C 329.978,339.156 330.311,340.323 332.5,341C 332.167,341.333 331.833,341.667 331.5,342C 333.211,343.435 334.378,345.269 335,347.5C 336.487,348.741 337.32,348.241 337.5,346C 338.569,342.226 339.236,338.393 339.5,334.5 Z"/></g>
<g><path style="opacity:0.361" fill="#7b796e" d="M 578.5,318.5 C 580.101,321.55 581.101,324.884 581.5,328.5C 579.024,325.712 578.024,322.378 578.5,318.5 Z"/></g>
<g><path style="opacity:1" fill="#fefdfa" d="M 623.5,319.5 C 623.5,338.5 623.5,357.5 623.5,376.5C 620.753,376.813 618.086,376.48 615.5,375.5C 614.448,373.89 614.448,372.223 615.5,370.5C 614.865,355.686 614.198,341.02 613.5,326.5C 613.833,323.5 612.5,322.167 609.5,322.5C 613.738,320.661 618.404,319.661 623.5,319.5 Z"/></g>
<g><path style="opacity:0.263" fill="#686857" d="M 28.5,320.5 C 27.2427,323.427 25.2427,325.761 22.5,327.5C 23.7573,324.573 25.7573,322.239 28.5,320.5 Z"/></g>
<g><path style="opacity:0.808" fill="#b0afa3" d="M 50.5,320.5 C 55.335,323.193 57.835,327.193 58,332.5C 56.7292,333.883 55.2292,334.883 53.5,335.5C 53.5,334.167 53.5,332.833 53.5,331.5C 54.5,331.5 55.5,331.5 56.5,331.5C 56.5086,329.692 56.0086,328.025 55,326.5C 52.5198,325.193 51.0198,323.193 50.5,320.5 Z"/></g>
<g><path style="opacity:0.169" fill="#767562" d="M 244.5,327.5 C 238.925,326.548 233.259,326.214 227.5,326.5C 227.285,328.179 227.952,329.179 229.5,329.5C 229.5,329.833 229.5,330.167 229.5,330.5C 226.886,330.723 225.219,329.556 224.5,327C 225.167,326.333 225.833,325.667 226.5,325C 230.415,324.955 234.249,324.788 238,324.5C 240.801,324.544 242.968,325.544 244.5,327.5 Z"/></g>
<g><path style="opacity:0.22" fill="#949382" d="M 287.5,329.5 C 282.825,326.956 277.825,326.122 272.5,327C 271.944,327.383 271.611,327.883 271.5,328.5C 270.167,328.5 268.833,328.5 267.5,328.5C 272.32,324.8 277.653,323.967 283.5,326C 285.324,326.66 286.657,327.827 287.5,329.5 Z"/></g>
<g><path style="opacity:0.186" fill="#858577" d="M 134.5,327.5 C 130.167,327.5 125.833,327.5 121.5,327.5C 121.5,328.5 121.5,329.5 121.5,330.5C 120.566,329.432 120.232,328.099 120.5,326.5C 125.363,326.181 130.03,326.514 134.5,327.5 Z"/></g>
<g><path style="opacity:0.192" fill="#838574" d="M 188.5,327.5 C 183.833,327.5 179.167,327.5 174.5,327.5C 174.5,328.5 174.5,329.5 174.5,330.5C 173.566,329.432 173.232,328.099 173.5,326.5C 178.695,326.179 183.695,326.513 188.5,327.5 Z"/></g>
<g><path style="opacity:0.214" fill="#6e6e60" d="M 477.5,343.5 C 476.787,338.632 476.121,333.632 475.5,328.5C 470.88,327.507 466.214,327.173 461.5,327.5C 461.5,328.5 461.5,329.5 461.5,330.5C 458.937,329.002 458.937,327.335 461.5,325.5C 466.447,326.283 471.447,326.783 476.5,327C 477.473,332.407 477.807,337.907 477.5,343.5 Z"/></g>
<g><path style="opacity:0.157" fill="#c4c0b5" d="M 44.5,335.5 C 44.3964,333.297 43.7298,331.297 42.5,329.5C 41.7261,328.853 40.7261,328.52 39.5,328.5C 37.9704,328.64 36.9704,329.307 36.5,330.5C 36.1667,330.5 35.8333,330.5 35.5,330.5C 35.33,329.178 35.6634,328.011 36.5,327C 43.652,325.978 46.3187,328.811 44.5,335.5 Z"/></g>
<g><path style="opacity:0.329" fill="#8a8a81" d="M 151.5,326.5 C 154.304,325.362 157.304,325.195 160.5,326C 162.056,328.501 161.389,330.001 158.5,330.5C 158.539,329.417 158.873,328.417 159.5,327.5C 156.914,326.52 154.247,326.187 151.5,326.5 Z"/></g>
<g><path style="opacity:0.654" fill="#b9b9a8" d="M 401.5,328.5 C 397.167,328.5 392.833,328.5 388.5,328.5C 388.5,330.167 388.5,331.833 388.5,333.5C 387.076,331.485 386.41,329.152 386.5,326.5C 391.944,325.892 396.944,326.558 401.5,328.5 Z"/></g>
<g><path style="opacity:0.565" fill="#c1c0aa" d="M 609.5,322.5 C 612.5,322.167 613.833,323.5 613.5,326.5C 613.666,336.506 613.5,346.506 613,356.5C 612.768,357.737 612.268,358.737 611.5,359.5C 611.667,347.829 611.5,336.162 611,324.5C 610.283,323.956 609.783,323.289 609.5,322.5 Z"/></g>
<g><path style="opacity:0.007" fill="#1c1c17" d="M 42.5,329.5 C 40.3792,329.325 38.3792,329.659 36.5,330.5C 36.9704,329.307 37.9704,328.64 39.5,328.5C 40.7261,328.52 41.7261,328.853 42.5,329.5 Z"/></g>
<g><path style="opacity:0.492" fill="#979785" d="M 75.5,326.5 C 73.1569,327.967 73.4903,329.301 76.5,330.5C 77.4519,332.045 77.7852,333.712 77.5,335.5C 75.6822,332.575 73.3489,330.075 70.5,328C 71.8774,325.699 73.544,325.199 75.5,326.5 Z"/></g>
<g><path style="opacity:1" fill="#fefdfa" d="M 95.5,347.5 C 96.5832,347.461 97.5832,347.127 98.5,346.5C 99.2975,346.957 99.6309,347.624 99.5,348.5C 98.0527,349.622 97.0527,351.122 96.5,353C 92.9106,353.207 89.4106,353.707 86,354.5C 85.6667,358.833 85.3333,363.167 85,367.5C 81.7174,369.811 82.2174,371.311 86.5,372C 90.8532,372.245 95.1866,372.245 99.5,372C 100.337,373.011 100.67,374.178 100.5,375.5C 93.1591,375.666 85.8258,375.5 78.5,375C 79.3246,360.575 79.8246,346.075 80,331.5C 86.8235,330.407 93.9902,329.407 101.5,328.5C 102.287,329.242 102.953,330.075 103.5,331C 97.9562,332.404 92.2896,332.904 86.5,332.5C 86.5,337.833 86.5,343.167 86.5,348.5C 89.7131,348.81 92.7131,348.477 95.5,347.5 Z"/></g>
<g><path style="opacity:1" fill="#f5f4ef" d="M 234.5,378.5 C 232.366,380.033 229.866,380.7 227,380.5C 223.85,380.64 221.017,379.973 218.5,378.5C 215.819,374.472 213.653,370.139 212,365.5C 210.953,354.531 210.12,343.531 209.5,332.5C 208.5,331.5 207.5,330.5 206.5,329.5C 210.783,328.508 215.116,328.174 219.5,328.5C 219.172,339.679 219.505,350.679 220.5,361.5C 220.263,362.791 220.596,363.791 221.5,364.5C 221.438,369.984 224.105,371.817 229.5,370C 230.252,369.329 230.586,368.496 230.5,367.5C 231.829,361.872 232.496,355.872 232.5,349.5C 232.333,343.5 232.167,337.5 232,331.5C 231.329,330.748 230.496,330.414 229.5,330.5C 229.5,330.167 229.5,329.833 229.5,329.5C 233.373,327.57 237.706,326.903 242.5,327.5C 241.72,341.135 241.22,354.802 241,368.5C 240.125,371.215 238.292,372.548 235.5,372.5C 235.483,374.565 235.15,376.565 234.5,378.5 Z"/></g>
<g><path style="opacity:1" fill="#faf9f3" d="M 267.5,328.5 C 268.833,328.5 270.167,328.5 271.5,328.5C 275.5,328.5 279.5,328.5 283.5,328.5C 283.5,329.5 283.5,330.5 283.5,331.5C 284.833,331.5 286.167,331.5 287.5,331.5C 287.813,334.247 287.48,336.914 286.5,339.5C 284.174,338.007 282.174,336.174 280.5,334C 271.658,332.01 268.325,335.51 270.5,344.5C 273.329,344.325 274.996,345.658 275.5,348.5C 285.846,349.512 291.512,355.179 292.5,365.5C 292.443,366.609 292.11,367.609 291.5,368.5C 289.362,368.703 287.695,369.703 286.5,371.5C 285.571,372.689 285.238,374.022 285.5,375.5C 280.301,377.595 274.968,377.928 269.5,376.5C 267.711,375.037 265.711,374.037 263.5,373.5C 260.956,372.292 259.622,370.292 259.5,367.5C 261.128,364.54 263.128,361.874 265.5,359.5C 266.591,356.808 268.257,356.142 270.5,357.5C 269.671,360.469 269.505,363.469 270,366.5C 271.11,368.037 272.61,368.703 274.5,368.5C 275.833,368.5 277.167,368.5 278.5,368.5C 283.565,366.717 285.565,363.05 284.5,357.5C 279.033,354.595 272.7,351.928 265.5,349.5C 263.731,345.007 263.231,340.341 264,335.5C 265.267,333.186 266.434,330.852 267.5,328.5 Z"/></g>
<g><path style="opacity:0.6" fill="#9e9e86" d="M 441.5,327.5 C 437.486,327.334 433.486,327.501 429.5,328C 428.748,328.671 428.414,329.504 428.5,330.5C 424.49,328.423 424.823,326.757 429.5,325.5C 433.661,326.04 437.661,326.707 441.5,327.5 Z"/></g>
<g><path style="opacity:1" fill="#fcfbf7" d="M 155.5,377.5 C 153.143,377.663 150.81,377.497 148.5,377C 147.663,375.989 147.33,374.822 147.5,373.5C 144.854,368.628 142.354,363.628 140,358.5C 140.874,353.247 138.707,350.58 133.5,350.5C 133.5,359.833 133.5,369.167 133.5,378.5C 131.654,380.03 130.654,382.03 130.5,384.5C 130.5,384.833 130.5,385.167 130.5,385.5C 128.035,386.232 126.035,387.565 124.5,389.5C 125.972,370.648 126.972,351.815 127.5,333C 126.071,328.933 127.404,327.766 131.5,329.5C 133.894,332.053 136.061,334.719 138,337.5C 138.671,338.252 139.504,338.586 140.5,338.5C 139.453,344.737 141.453,349.737 146.5,353.5C 147.498,345.193 147.831,336.86 147.5,328.5C 150.579,328.74 153.579,328.407 156.5,327.5C 157.745,328.955 157.578,330.289 156,331.5C 155.5,346.83 155.333,362.163 155.5,377.5 Z"/></g>
<g><path style="opacity:0.039" fill="#54534f" d="M 341.5,328.5 C 341.741,330.898 341.074,332.898 339.5,334.5C 339.595,332.214 340.262,330.214 341.5,328.5 Z"/></g>
<g><path style="opacity:1" fill="#faf9f3" d="M 401.5,328.5 C 401.917,332.835 402.417,337.168 403,341.5C 403.671,342.252 404.504,342.586 405.5,342.5C 405.054,345.01 405.72,347.01 407.5,348.5C 407.5,348.833 407.5,349.167 407.5,349.5C 407.691,358.342 409.691,366.676 413.5,374.5C 411.465,376.013 409.131,376.679 406.5,376.5C 404.833,376.167 403.167,375.833 401.5,375.5C 402.369,370.876 402.369,366.209 401.5,361.5C 397.833,361.5 394.167,361.5 390.5,361.5C 389.167,365.5 389.167,369.5 390.5,373.5C 390.567,374.959 390.234,376.292 389.5,377.5C 386.215,377.736 383.215,378.736 380.5,380.5C 380.167,379.5 379.833,378.5 379.5,377.5C 380.598,374.898 381.598,372.231 382.5,369.5C 383.492,365.217 383.826,360.884 383.5,356.5C 384.7,348.705 386.366,341.038 388.5,333.5C 388.5,331.833 388.5,330.167 388.5,328.5C 392.833,328.5 397.167,328.5 401.5,328.5 Z"/></g>
<g><path style="opacity:1" fill="#fdfcfa" d="M 475.5,370.5 C 479.353,371.166 483.353,371.833 487.5,372.5C 488.025,373.192 488.692,373.692 489.5,374C 489.167,374.333 488.833,374.667 488.5,375C 481.842,375.5 475.175,375.666 468.5,375.5C 468.997,373.403 469.33,371.57 469.5,370C 468.678,358.576 468.178,347.076 468,335.5C 467.617,334.944 467.117,334.611 466.5,334.5C 466.912,332.027 465.912,330.694 463.5,330.5C 463.389,329.883 463.056,329.383 462.5,329C 466.486,328.501 470.486,328.334 474.5,328.5C 474.171,342.677 474.504,356.677 475.5,370.5 Z"/></g>
<g><path style="opacity:1" fill="#d0cfc5" d="M 578.5,318.5 C 578.024,322.378 579.024,325.712 581.5,328.5C 582.917,331.998 583.583,335.665 583.5,339.5C 582.205,335.028 579.539,331.528 575.5,329C 576.578,328.326 577.245,327.326 577.5,326C 576.923,323.863 576.59,321.696 576.5,319.5C 572.154,319.334 567.821,319.501 563.5,320C 564.894,321.739 565.561,323.739 565.5,326C 563.741,331.228 562.074,336.395 560.5,341.5C 561.164,336.841 561.831,332.174 562.5,327.5C 562.062,324.473 561.895,321.473 562,318.5C 567.5,317.189 573,317.189 578.5,318.5 Z"/></g>
<g><path style="opacity:0.982" fill="#c1c0b3" d="M 134.5,327.5 C 137.258,330.678 139.258,334.345 140.5,338.5C 139.504,338.586 138.671,338.252 138,337.5C 136.061,334.719 133.894,332.053 131.5,329.5C 127.404,327.766 126.071,328.933 127.5,333C 126.972,351.815 125.972,370.648 124.5,389.5C 124.167,389.5 123.833,389.5 123.5,389.5C 122.903,389.265 122.57,388.765 122.5,388C 123.443,378.531 124.11,369.031 124.5,359.5C 125.166,355.012 125.499,350.346 125.5,345.5C 125.493,340.449 124.827,335.783 123.5,331.5C 122.833,331.167 122.167,330.833 121.5,330.5C 121.5,329.5 121.5,328.5 121.5,327.5C 125.833,327.5 130.167,327.5 134.5,327.5 Z"/></g>
<g><path style="opacity:0.078" fill="#585749" d="M 204.5,326.5 C 210.234,325.175 216.068,325.175 222,326.5C 221.56,339.109 221.393,351.775 221.5,364.5C 220.596,363.791 220.263,362.791 220.5,361.5C 220.5,349.833 220.5,338.167 220.5,326.5C 215.167,326.5 209.833,326.5 204.5,326.5 Z"/></g>
<g><path style="opacity:0.993" fill="#dfdfd0" d="M 287.5,329.5 C 289.773,329.957 291.106,331.29 291.5,333.5C 292.833,335.167 292.833,336.833 291.5,338.5C 289.471,340.858 287.471,343.192 285.5,345.5C 283.972,344.198 282.972,342.531 282.5,340.5C 280.773,336.969 278.107,335.636 274.5,336.5C 273.624,336.369 272.957,336.702 272.5,337.5C 271.347,338.687 271.347,339.687 272.5,340.5C 274.191,341.864 275.858,343.197 277.5,344.5C 279.336,346.009 281.336,347.509 283.5,349C 284.793,349.49 286.127,349.657 287.5,349.5C 293.655,353.299 295.655,358.632 293.5,365.5C 293.167,365.5 292.833,365.5 292.5,365.5C 291.512,355.179 285.846,349.512 275.5,348.5C 274.996,345.658 273.329,344.325 270.5,344.5C 268.325,335.51 271.658,332.01 280.5,334C 282.174,336.174 284.174,338.007 286.5,339.5C 287.48,336.914 287.813,334.247 287.5,331.5C 286.167,331.5 284.833,331.5 283.5,331.5C 283.5,330.5 283.5,329.5 283.5,328.5C 279.5,328.5 275.5,328.5 271.5,328.5C 271.611,327.883 271.944,327.383 272.5,327C 277.825,326.122 282.825,326.956 287.5,329.5 Z M 282.5,340.5 C 282.5,342.167 282.5,343.833 282.5,345.5C 280.784,345.371 279.117,345.038 277.5,344.5C 275.858,343.197 274.191,341.864 272.5,340.5C 273.167,339.167 273.833,337.833 274.5,336.5C 278.107,335.636 280.773,336.969 282.5,340.5 Z"/></g>
<g><path style="opacity:0.263" fill="#adac9f" d="M 98.5,336.5 C 97.036,335.84 95.3693,335.507 93.5,335.5C 91.3603,335.556 89.6936,336.223 88.5,337.5C 87.596,336.791 87.2627,335.791 87.5,334.5C 93.1667,334.5 98.8333,334.5 104.5,334.5C 104.623,331.626 105.623,329.126 107.5,327C 97.0245,327.718 86.6912,327.551 76.5,326.5C 82.8421,326.666 89.1754,326.5 95.5,326C 100.506,324.641 105.506,323.641 110.5,323C 110.957,323.414 111.291,323.914 111.5,324.5C 109.533,328.297 107.366,331.964 105,335.5C 102.984,337.608 100.817,337.942 98.5,336.5 Z"/></g>
<g><path style="opacity:0.055" fill="#474536" d="M 98.5,336.5 C 95.5,336.5 92.5,336.5 89.5,336.5C 89.5,339.5 89.5,342.5 89.5,345.5C 88.5269,343.052 88.1936,340.385 88.5,337.5C 89.6936,336.223 91.3603,335.556 93.5,335.5C 95.3693,335.507 97.036,335.84 98.5,336.5 Z"/></g>
<g><path style="opacity:0.012" fill="#4c4b4a" d="M 291.5,333.5 C 294.167,335.167 294.167,336.833 291.5,338.5C 292.833,336.833 292.833,335.167 291.5,333.5 Z"/></g>
<g><path style="opacity:0.975" fill="#dddccf" d="M 339.5,334.5 C 339.236,338.393 338.569,342.226 337.5,346C 337.32,348.241 336.487,348.741 335,347.5C 334.378,345.269 333.211,343.435 331.5,342C 331.833,341.667 332.167,341.333 332.5,341C 330.311,340.323 329.978,339.156 331.5,337.5C 330.107,334.242 328.94,330.908 328,327.5C 327.503,325.19 327.337,322.857 327.5,320.5C 324.167,320.5 320.833,320.5 317.5,320.5C 318.094,327.237 317.094,333.571 314.5,339.5C 315.167,334.84 315.333,330.174 315,325.5C 314.117,322.898 312.617,320.731 310.5,319C 310.833,318.667 311.167,318.333 311.5,318C 316.833,317.333 322.167,317.333 327.5,318C 330.908,325.216 333.741,332.716 336,340.5C 336.333,340.833 336.667,341.167 337,341.5C 337.698,338.996 338.531,336.663 339.5,334.5 Z"/></g>
<g><path style="opacity:0.981" fill="#e8e6d7" d="M 623.5,319.5 C 623.833,319.5 624.167,319.5 624.5,319.5C 624.5,339.167 624.5,358.833 624.5,378.5C 622.833,378.5 621.167,378.5 619.5,378.5C 615.907,377.847 612.241,377.014 608.5,376C 612.388,373.194 613.388,369.694 611.5,365.5C 611.5,363.5 611.5,361.5 611.5,359.5C 612.268,358.737 612.768,357.737 613,356.5C 613.5,346.506 613.666,336.506 613.5,326.5C 614.198,341.02 614.865,355.686 615.5,370.5C 614.448,372.223 614.448,373.89 615.5,375.5C 618.086,376.48 620.753,376.813 623.5,376.5C 623.5,357.5 623.5,338.5 623.5,319.5 Z"/></g>
<g><path style="opacity:0.012" fill="#55544a" d="M 274.5,336.5 C 273.833,337.833 273.167,339.167 272.5,340.5C 271.347,339.687 271.347,338.687 272.5,337.5C 272.957,336.702 273.624,336.369 274.5,336.5 Z"/></g>
<g><path style="opacity:0.624" fill="#a3a190" d="M 44.5,335.5 C 44.4148,336.995 45.0815,337.995 46.5,338.5C 47.7946,337.902 49.1279,337.402 50.5,337C 50.1667,336.667 49.8333,336.333 49.5,336C 50.7932,335.51 52.1266,335.343 53.5,335.5C 51.3258,337.846 48.8258,339.846 46,341.5C 45.228,341.355 44.5613,341.022 44,340.5C 43.2204,338.613 43.3871,336.946 44.5,335.5 Z"/></g>
<g><path style="opacity:0.172" fill="#a8a797" d="M 244.5,327.5 C 244.328,337.563 244.328,347.563 244.5,357.5C 244.21,363.504 242.71,369.171 240,374.5C 238.549,376.464 236.716,377.797 234.5,378.5C 235.15,376.565 235.483,374.565 235.5,372.5C 238.292,372.548 240.125,371.215 241,368.5C 241.22,354.802 241.72,341.135 242.5,327.5C 237.706,326.903 233.373,327.57 229.5,329.5C 227.952,329.179 227.285,328.179 227.5,326.5C 233.259,326.214 238.925,326.548 244.5,327.5 Z"/></g>
<g><path style="opacity:0.658" fill="#babaa8" d="M 267.5,328.5 C 266.434,330.852 265.267,333.186 264,335.5C 263.231,340.341 263.731,345.007 265.5,349.5C 262.435,346.993 261.102,343.66 261.5,339.5C 261.188,334.449 263.188,330.782 267.5,328.5 Z"/></g>
<g><path style="opacity:0.671" fill="#b8b2a3" d="M 401.5,328.5 C 403.746,332.805 405.08,337.471 405.5,342.5C 404.504,342.586 403.671,342.252 403,341.5C 402.417,337.168 401.917,332.835 401.5,328.5 Z"/></g>
<g><path style="opacity:0.635" fill="#bfbdaa" d="M 151.5,326.5 C 154.247,326.187 156.914,326.52 159.5,327.5C 158.873,328.417 158.539,329.417 158.5,330.5C 157.738,332.956 157.071,335.456 156.5,338C 157.825,351.19 157.825,364.356 156.5,377.5C 156.167,377.5 155.833,377.5 155.5,377.5C 155.333,362.163 155.5,346.83 156,331.5C 157.578,330.289 157.745,328.955 156.5,327.5C 153.579,328.407 150.579,328.74 147.5,328.5C 147.831,336.86 147.498,345.193 146.5,353.5C 141.453,349.737 139.453,344.737 140.5,338.5C 142.163,340.493 143.33,342.826 144,345.5C 144.293,339.133 144.793,332.8 145.5,326.5C 147.5,326.5 149.5,326.5 151.5,326.5 Z"/></g>
<g><path style="opacity:0.384" fill="#b7b49e" d="M 572.5,342.5 C 574.025,345.583 575.025,348.916 575.5,352.5C 573.5,352.5 571.5,352.5 569.5,352.5C 569.707,348.882 570.707,345.548 572.5,342.5 Z M 571.5,348.5 C 572.167,348.833 572.833,349.167 573.5,349.5C 572.377,350.757 571.711,350.424 571.5,348.5 Z"/></g>
<g><path style="opacity:0.008" fill="#767566" d="M 38.5,347.5 C 44.987,346.346 51.6536,346.179 58.5,347C 60.7823,348.084 61.1157,349.584 59.5,351.5C 58.8333,351.5 58.5,351.167 58.5,350.5C 58.4226,349.25 57.756,348.417 56.5,348C 50.5092,347.501 44.5092,347.334 38.5,347.5 Z"/></g>
<g><path style="opacity:0.29" fill="#7d7b70" d="M 405.5,342.5 C 406.738,344.214 407.405,346.214 407.5,348.5C 405.72,347.01 405.054,345.01 405.5,342.5 Z"/></g>
<g><path style="opacity:0.008" fill="#000000" d="M 573.5,349.5 C 572.833,349.167 572.167,348.833 571.5,348.5C 572.301,346.207 572.968,346.54 573.5,349.5 Z"/></g>
<g><path style="opacity:0.627" fill="#dcdbca" d="M 31.5,339.5 C 31.1997,346.896 31.6997,354.229 33,361.5C 34.8567,364.2 37.3567,365.866 40.5,366.5C 41.5,366.5 42.5,366.5 43.5,366.5C 42.5039,367.665 41.1705,368.332 39.5,368.5C 36.8147,367.018 34.148,365.684 31.5,364.5C 30.3623,359.299 29.6956,353.966 29.5,348.5C 29.6667,345.833 29.8333,343.167 30,340.5C 30.3826,339.944 30.8826,339.611 31.5,339.5 Z"/></g>
<g><path style="opacity:0.549" fill="#b1ada1" d="M 282.5,340.5 C 282.972,342.531 283.972,344.198 285.5,345.5C 285.733,347.062 286.4,348.395 287.5,349.5C 286.127,349.657 284.793,349.49 283.5,349C 281.336,347.509 279.336,346.009 277.5,344.5C 279.117,345.038 280.784,345.371 282.5,345.5C 282.5,343.833 282.5,342.167 282.5,340.5 Z"/></g>
<g><path style="opacity:0.09" fill="#aba796" d="M 508.5,340.5 C 508.5,343.5 508.5,346.5 508.5,349.5C 517.833,349.5 527.167,349.5 536.5,349.5C 536.5,346.833 536.5,344.167 536.5,341.5C 534.901,341.768 533.568,341.434 532.5,340.5C 534.467,340.261 536.301,340.594 538,341.5C 538.667,344.167 538.667,346.833 538,349.5C 527.894,350.818 517.728,350.818 507.5,349.5C 506.001,346.191 506.334,343.191 508.5,340.5 Z"/></g>
<g><path style="opacity:1" fill="#f5f4e8" d="M 508.5,340.5 C 516.5,340.5 524.5,340.5 532.5,340.5C 533.568,341.434 534.901,341.768 536.5,341.5C 536.5,344.167 536.5,346.833 536.5,349.5C 527.167,349.5 517.833,349.5 508.5,349.5C 508.5,346.5 508.5,343.5 508.5,340.5 Z"/></g>
<g><path style="opacity:0.094" fill="#514e42" d="M 123.5,331.5 C 124.827,335.783 125.493,340.449 125.5,345.5C 125.499,350.346 125.166,355.012 124.5,359.5C 124.78,350.114 124.447,340.78 123.5,331.5 Z"/></g>
<g><path style="opacity:0.985" fill="#cecdc1" d="M 332.5,368.5 C 330.065,362.702 327.898,356.702 326,350.5C 325.39,353.827 324.89,357.161 324.5,360.5C 323.51,354.355 323.177,348.022 323.5,341.5C 325.39,341.297 326.89,341.963 328,343.5C 328.116,348.267 329.283,352.6 331.5,356.5C 332.023,360.489 332.356,364.489 332.5,368.5 Z"/></g>
<g><path style="opacity:0.09" fill="#aca895" d="M 348.5,345.5 C 348.5,349.167 348.5,352.833 348.5,356.5C 347.732,355.737 347.232,354.737 347,353.5C 346.434,355.723 345.6,357.723 344.5,359.5C 344.949,355.473 345.616,351.473 346.5,347.5C 346.747,346.287 347.414,345.62 348.5,345.5 Z"/></g>
<g><path style="opacity:0.031" fill="#878674" d="M 229.5,330.5 C 230.496,330.414 231.329,330.748 232,331.5C 232.167,337.5 232.333,343.5 232.5,349.5C 232.496,355.872 231.829,361.872 230.5,367.5C 231.623,356.213 231.79,344.879 231,333.5C 230.487,332.473 229.987,331.473 229.5,330.5 Z"/></g>
<g><path style="opacity:0.542" fill="#c9c6b6" d="M 441.5,327.5 C 442.833,344.167 442.833,360.833 441.5,377.5C 436.821,377.666 432.155,377.499 427.5,377C 428.582,375.67 429.249,374.17 429.5,372.5C 430.541,359.852 430.708,347.185 430,334.5C 429.59,333.099 429.09,331.766 428.5,330.5C 428.414,329.504 428.748,328.671 429.5,328C 433.486,327.501 437.486,327.334 441.5,327.5 Z"/></g>
<g><path style="opacity:1" fill="#fdfcf7" d="M 430.5,328.5 C 433.833,328.5 437.167,328.5 440.5,328.5C 440.5,344.5 440.5,360.5 440.5,376.5C 436.818,376.665 433.152,376.499 429.5,376C 430.047,375.075 430.713,374.242 431.5,373.5C 432.666,359.512 432.833,345.512 432,331.5C 430.961,330.756 430.461,329.756 430.5,328.5 Z"/></g>
<g><path style="opacity:0.784" fill="#a0a090" d="M 560.5,341.5 C 560.468,345.983 559.468,349.983 557.5,353.5C 557.755,349.2 558.755,345.2 560.5,341.5 Z"/></g>
<g><path style="opacity:0.524" fill="#b3afa0" d="M 58.5,350.5 C 58.5,351.167 58.8333,351.5 59.5,351.5C 59.4636,359.879 59.6303,368.212 60,376.5C 57.6721,377.999 55.5054,379.666 53.5,381.5C 54.038,379.883 54.3713,378.216 54.5,376.5C 55.8333,376.5 57.1667,376.5 58.5,376.5C 58.78,373.728 58.1134,371.228 56.5,369C 57.1486,362.734 57.8153,356.567 58.5,350.5 Z"/></g>
<g><path style="opacity:0.871" fill="#bdbbaf" d="M 265.5,349.5 C 272.7,351.928 279.033,354.595 284.5,357.5C 285.565,363.05 283.565,366.717 278.5,368.5C 279.458,367.038 280.624,365.705 282,364.5C 282.667,363.167 282.667,361.833 282,360.5C 276.396,356.92 270.896,353.254 265.5,349.5 Z"/></g>
<g><path style="opacity:0.227" fill="#c3c0ac" d="M 477.5,343.5 C 477.76,350.557 477.427,357.557 476.5,364.5C 476.5,366.167 476.5,367.833 476.5,369.5C 480.042,369.813 483.375,369.479 486.5,368.5C 487.167,368.5 487.833,368.5 488.5,368.5C 488.389,369.117 488.056,369.617 487.5,370C 483.514,370.499 479.514,370.666 475.5,370.5C 474.504,356.677 474.171,342.677 474.5,328.5C 470.486,328.334 466.486,328.501 462.5,329C 463.056,329.383 463.389,329.883 463.5,330.5C 462.833,330.5 462.167,330.5 461.5,330.5C 461.5,329.5 461.5,328.5 461.5,327.5C 466.214,327.173 470.88,327.507 475.5,328.5C 476.121,333.632 476.787,338.632 477.5,343.5 Z"/></g>
<g><path style="opacity:0.62" fill="#c1bfb0" d="M 37.5,348.5 C 38.4614,350.265 38.7947,352.265 38.5,354.5C 42.1667,354.5 45.8333,354.5 49.5,354.5C 49.6621,356.527 49.4955,358.527 49,360.5C 48.3292,361.252 47.4959,361.586 46.5,361.5C 46.5394,360.417 46.8728,359.417 47.5,358.5C 43.9907,357.434 40.4907,356.434 37,355.5C 36.2042,352.961 36.3709,350.628 37.5,348.5 Z"/></g>
<g><path style="opacity:0.929" fill="#e3e1d5" d="M 147.5,373.5 C 146.391,373.443 145.391,373.11 144.5,372.5C 142.597,369.021 140.93,365.354 139.5,361.5C 138.965,357.666 137.465,356.999 135,359.5C 134.604,365.897 135.104,372.231 136.5,378.5C 136.167,378.5 135.833,378.5 135.5,378.5C 134.833,378.5 134.167,378.5 133.5,378.5C 133.5,369.167 133.5,359.833 133.5,350.5C 138.707,350.58 140.874,353.247 140,358.5C 142.354,363.628 144.854,368.628 147.5,373.5 Z"/></g>
<g><path style="opacity:0.969" fill="#f0eee2" d="M 466.5,334.5 C 467.117,334.611 467.617,334.944 468,335.5C 468.178,347.076 468.678,358.576 469.5,370C 469.33,371.57 468.997,373.403 468.5,375.5C 475.175,375.666 481.842,375.5 488.5,375C 488.833,374.667 489.167,374.333 489.5,374C 488.692,373.692 488.025,373.192 487.5,372.5C 483.353,371.833 479.353,371.166 475.5,370.5C 479.514,370.666 483.514,370.499 487.5,370C 488.056,369.617 488.389,369.117 488.5,368.5C 490.988,367.26 492.821,365.26 494,362.5C 494.543,365.868 494.376,369.201 493.5,372.5C 493.598,374.553 492.931,376.22 491.5,377.5C 481.81,377.832 472.144,377.498 462.5,376.5C 463.48,375.019 464.647,373.685 466,372.5C 466.5,359.838 466.667,347.171 466.5,334.5 Z"/></g>
<g><path style="opacity:0.725" fill="#b3b3a4" d="M 204.5,326.5 C 209.833,326.5 215.167,326.5 220.5,326.5C 220.5,338.167 220.5,349.833 220.5,361.5C 219.505,350.679 219.172,339.679 219.5,328.5C 215.116,328.174 210.783,328.508 206.5,329.5C 207.5,330.5 208.5,331.5 209.5,332.5C 210.12,343.531 210.953,354.531 212,365.5C 213.653,370.139 215.819,374.472 218.5,378.5C 214.258,376.061 211.425,372.395 210,367.5C 209.89,356.191 209.223,344.858 208,333.5C 206.903,331.947 205.57,330.614 204,329.5C 203.53,328.423 203.697,327.423 204.5,326.5 Z"/></g>
<g><path style="opacity:0.4" fill="#8c8c80" d="M 265.5,359.5 C 263.128,361.874 261.128,364.54 259.5,367.5C 258.218,366.292 258.218,364.958 259.5,363.5C 261.529,362.156 263.529,360.823 265.5,359.5 Z"/></g>
<g><path style="opacity:0.776" fill="#8e8e7f" d="M 557.5,353.5 C 557.665,356.85 557.498,360.183 557,363.5C 556.292,364.381 555.458,365.047 554.5,365.5C 554.898,361.239 555.898,357.239 557.5,353.5 Z"/></g>
<g><path style="opacity:0.641" fill="#a5a397" d="M 139.5,361.5 C 138.21,360.942 137.377,359.942 137,358.5C 136.833,359.333 136.667,360.167 136.5,361C 136.693,366.99 136.693,372.824 136.5,378.5C 135.104,372.231 134.604,365.897 135,359.5C 137.465,356.999 138.965,357.666 139.5,361.5 Z"/></g>
<g><path style="opacity:0.917" fill="#b7b4a6" d="M 188.5,327.5 C 189.833,344.167 189.833,360.833 188.5,377.5C 183.5,377.5 178.5,377.5 173.5,377.5C 173.5,376.5 173.5,375.5 173.5,374.5C 174.172,373.733 175.005,373.066 176,372.5C 176.667,359.167 176.667,345.833 176,332.5C 175.283,331.956 174.783,331.289 174.5,330.5C 174.5,329.5 174.5,328.5 174.5,327.5C 179.167,327.5 183.833,327.5 188.5,327.5 Z"/></g>
<g><path style="opacity:1" fill="#fdfcfa" d="M 177.5,329.5 C 180.287,328.523 183.287,328.19 186.5,328.5C 186.667,344.17 186.5,359.837 186,375.5C 183.959,376.423 181.792,376.756 179.5,376.5C 179.667,361.496 179.5,346.496 179,331.5C 178.722,330.584 178.222,329.918 177.5,329.5 Z"/></g>
<g><path style="opacity:0.094" fill="#5e5a57" d="M 46.5,361.5 C 45.925,363.411 44.925,365.078 43.5,366.5C 42.5,366.5 41.5,366.5 40.5,366.5C 42.4752,364.863 44.4752,363.196 46.5,361.5 Z"/></g>
<g><path style="opacity:0.012" fill="#4e4c3d" d="M 98.5,355.5 C 95.7131,356.477 92.7131,356.81 89.5,356.5C 89.5,360.5 89.5,364.5 89.5,368.5C 89.1667,368.5 88.8333,368.5 88.5,368.5C 88.5,364.167 88.5,359.833 88.5,355.5C 91.8333,355.5 95.1667,355.5 98.5,355.5 Z"/></g>
<g><path style="opacity:0.788" fill="#9e9d8d" d="M 106.5,370.5 C 106.799,368.396 106.466,366.396 105.5,364.5C 104.378,365.63 103.044,366.297 101.5,366.5C 102.656,360.251 105.323,359.251 109.5,363.5C 108.339,365.885 107.339,368.219 106.5,370.5 Z"/></g>
<g><path style="opacity:0.071" fill="#706f5d" d="M 270.5,357.5 C 271.09,359.99 271.257,362.657 271,365.5C 272.145,366.636 273.312,367.636 274.5,368.5C 272.61,368.703 271.11,368.037 270,366.5C 269.505,363.469 269.671,360.469 270.5,357.5 Z"/></g>
<g><path style="opacity:0.722" fill="#979586" d="M 493.5,372.5 C 494.376,369.201 494.543,365.868 494,362.5C 492.821,365.26 490.988,367.26 488.5,368.5C 487.833,368.5 487.167,368.5 486.5,368.5C 489.31,366.75 491.31,364.25 492.5,361C 494.906,360.221 496.573,361.054 497.5,363.5C 496.531,366.769 495.198,369.769 493.5,372.5 Z"/></g>
<g><path style="opacity:0.212" fill="#727168" d="M 382.5,360.5 C 382.829,363.228 382.163,365.562 380.5,367.5C 380.721,364.933 381.388,362.599 382.5,360.5 Z"/></g>
<g><path style="opacity:0.412" fill="#9f9e91" d="M 323.5,362.5 C 323.376,367.049 322.709,371.382 321.5,375.5C 321.335,371.818 321.501,368.152 322,364.5C 322.278,363.584 322.778,362.918 323.5,362.5 Z"/></g>
<g><path style="opacity:0.202" fill="#7a796b" d="M 461.5,330.5 C 462.167,330.5 462.833,330.5 463.5,330.5C 465.912,330.694 466.912,332.027 466.5,334.5C 466.667,347.171 466.5,359.838 466,372.5C 464.647,373.685 463.48,375.019 462.5,376.5C 472.144,377.498 481.81,377.832 491.5,377.5C 481.013,378.494 470.346,378.828 459.5,378.5C 459.343,377.127 459.51,375.793 460,374.5C 463.626,372.885 465.459,370.052 465.5,366C 464.472,356.238 464.472,346.404 465.5,336.5C 464.639,334.089 463.306,332.089 461.5,330.5 Z"/></g>
<g><path style="opacity:0.439" fill="#cfcec2" d="M 344.5,359.5 C 342.768,366.696 340.435,373.696 337.5,380.5C 334.327,377.153 332.66,373.153 332.5,368.5C 333.507,369.828 334.84,370.828 336.5,371.5C 338.003,370.41 338.336,369.243 337.5,368C 340.049,367.249 341.716,365.582 342.5,363C 342.167,362.667 341.833,362.333 341.5,362C 342.691,361.302 343.691,360.469 344.5,359.5 Z"/></g>
<g><path style="opacity:0.4" fill="#c1c0af" d="M 98.5,355.5 C 95.1667,355.5 91.8333,355.5 88.5,355.5C 88.5,359.833 88.5,364.167 88.5,368.5C 92.7012,369.736 97.0345,369.736 101.5,368.5C 97.2853,370.436 92.6186,371.103 87.5,370.5C 87.5,365.167 87.5,359.833 87.5,354.5C 91.1667,354.5 94.8333,354.5 98.5,354.5C 98.8333,352.5 99.1667,350.5 99.5,348.5C 99.6309,347.624 99.2975,346.957 98.5,346.5C 97.5832,347.127 96.5832,347.461 95.5,347.5C 93.5853,347.784 91.9187,347.451 90.5,346.5C 94.227,346.805 96.8937,345.305 98.5,342C 99.7839,341.316 100.951,341.483 102,342.5C 102.226,347.265 101.06,351.598 98.5,355.5 Z"/></g>
<g><path style="opacity:0.063" fill="#64645c" d="M 292.5,365.5 C 292.833,365.5 293.167,365.5 293.5,365.5C 293.539,368.089 292.539,370.089 290.5,371.5C 290.557,370.391 290.89,369.391 291.5,368.5C 292.11,367.609 292.443,366.609 292.5,365.5 Z"/></g>
<g><path style="opacity:0.871" fill="#bbbaab" d="M 407.5,349.5 C 410.033,358.273 412.699,367.106 415.5,376C 415.043,376.414 414.709,376.914 414.5,377.5C 409.208,378.495 403.875,378.828 398.5,378.5C 398.321,376.046 398.987,373.879 400.5,372C 399.678,369.566 399.344,367.066 399.5,364.5C 397.396,364.201 395.396,364.534 393.5,365.5C 392.484,368.282 391.484,370.949 390.5,373.5C 389.167,369.5 389.167,365.5 390.5,361.5C 394.167,361.5 397.833,361.5 401.5,361.5C 402.369,366.209 402.369,370.876 401.5,375.5C 403.167,375.833 404.833,376.167 406.5,376.5C 409.131,376.679 411.465,376.013 413.5,374.5C 409.691,366.676 407.691,358.342 407.5,349.5 Z"/></g>
<g><path style="opacity:0.102" fill="#8b8866" d="M 476.5,364.5 C 477.434,365.568 477.768,366.901 477.5,368.5C 480.5,368.5 483.5,368.5 486.5,368.5C 483.375,369.479 480.042,369.813 476.5,369.5C 476.5,367.833 476.5,366.167 476.5,364.5 Z"/></g>
<g><path style="opacity:0.992" fill="#ebe9dd" d="M 75.5,326.5 C 75.8333,326.5 76.1667,326.5 76.5,326.5C 86.6912,327.551 97.0245,327.718 107.5,327C 105.623,329.126 104.623,331.626 104.5,334.5C 98.8333,334.5 93.1667,334.5 87.5,334.5C 87.2627,335.791 87.596,336.791 88.5,337.5C 88.1936,340.385 88.5269,343.052 89.5,345.5C 89.5,346.167 89.8333,346.5 90.5,346.5C 91.9187,347.451 93.5853,347.784 95.5,347.5C 92.7131,348.477 89.7131,348.81 86.5,348.5C 86.5,343.167 86.5,337.833 86.5,332.5C 92.2896,332.904 97.9562,332.404 103.5,331C 102.953,330.075 102.287,329.242 101.5,328.5C 93.9902,329.407 86.8235,330.407 80,331.5C 79.8246,346.075 79.3246,360.575 78.5,375C 85.8258,375.5 93.1591,375.666 100.5,375.5C 100.67,374.178 100.337,373.011 99.5,372C 95.1866,372.245 90.8532,372.245 86.5,372C 82.2174,371.311 81.7174,369.811 85,367.5C 85.3333,363.167 85.6667,358.833 86,354.5C 89.4106,353.707 92.9106,353.207 96.5,353C 97.0527,351.122 98.0527,349.622 99.5,348.5C 99.1667,350.5 98.8333,352.5 98.5,354.5C 94.8333,354.5 91.1667,354.5 87.5,354.5C 87.5,359.833 87.5,365.167 87.5,370.5C 92.6186,371.103 97.2853,370.436 101.5,368.5C 101.5,367.833 101.5,367.167 101.5,366.5C 103.044,366.297 104.378,365.63 105.5,364.5C 106.466,366.396 106.799,368.396 106.5,370.5C 106.293,373.241 105.293,375.574 103.5,377.5C 93.1452,377.832 82.8119,377.499 72.5,376.5C 73.1925,375.482 73.8592,374.482 74.5,373.5C 75.8005,372.118 76.6339,370.452 77,368.5C 77.4998,357.505 77.6665,346.505 77.5,335.5C 77.7852,333.712 77.4519,332.045 76.5,330.5C 73.4903,329.301 73.1569,327.967 75.5,326.5 Z"/></g>
<g><path style="opacity:0.173" fill="#92917c" d="M 101.5,366.5 C 101.5,367.167 101.5,367.833 101.5,368.5C 97.0345,369.736 92.7012,369.736 88.5,368.5C 88.8333,368.5 89.1667,368.5 89.5,368.5C 93.6995,368.81 97.6995,368.143 101.5,366.5 Z"/></g>
<g><path style="opacity:0.09" fill="#8b897a" d="M 221.5,364.5 C 223.119,369.655 226.119,370.655 230.5,367.5C 230.586,368.496 230.252,369.329 229.5,370C 224.105,371.817 221.438,369.984 221.5,364.5 Z"/></g>
<g><path style="opacity:0.663" fill="#a6a791" d="M 311.5,360.5 C 311.666,364.514 311.499,368.514 311,372.5C 310.303,374.584 309.136,376.251 307.5,377.5C 308.852,371.722 310.185,366.055 311.5,360.5 Z"/></g>
<g><path style="opacity:0.998" fill="#d9d7c6" d="M 19.5,335.5 C 19.1688,343.86 19.5021,352.193 20.5,360.5C 22.5299,363.096 24.1966,365.929 25.5,369C 27.2166,370.559 29.2166,371.392 31.5,371.5C 31.5,372.833 31.5,374.167 31.5,375.5C 37.3882,376.012 43.0548,375.345 48.5,373.5C 47.7888,375.03 46.7888,376.363 45.5,377.5C 41.1667,377.5 36.8333,377.5 32.5,377.5C 26.3778,375.634 22.2111,371.634 20,365.5C 17.9262,357.153 17.2596,348.486 18,339.5C 18.21,337.942 18.71,336.609 19.5,335.5 Z"/></g>
<g><path style="opacity:0.235" fill="#a4a393" d="M 589.5,359.5 C 592.45,365.286 593.784,371.286 593.5,377.5C 590.742,371.875 589.409,365.875 589.5,359.5 Z"/></g>
<g><path style="opacity:0.561" fill="#898876" d="M 577.5,366.5 C 578.117,366.611 578.617,366.944 579,367.5C 579.667,369.833 579.667,372.167 579,374.5C 577.122,375.053 575.622,376.053 574.5,377.5C 573.475,377.103 573.308,376.437 574,375.5C 575.771,374.696 577.271,373.529 578.5,372C 577.594,370.301 577.261,368.467 577.5,366.5 Z"/></g>
<g><path style="opacity:1" fill="#cac9b9" d="M 359.5,338.5 C 361.005,351.872 362.505,365.206 364,378.5C 359.667,379.833 355.333,379.833 351,378.5C 349.862,371.383 349.029,364.05 348.5,356.5C 348.5,352.833 348.5,349.167 348.5,345.5C 349.281,355.518 350.947,365.518 353.5,375.5C 356.167,375.833 358.833,376.167 361.5,376.5C 360.399,365.221 359.399,353.721 358.5,342C 358.514,340.615 358.848,339.449 359.5,338.5 Z"/></g>
<g><path style="opacity:0.047" fill="#27271e" d="M 608.5,373.5 C 607.058,374.82 606.392,376.486 606.5,378.5C 605.402,377.399 605.235,376.066 606,374.5C 606.671,373.748 607.504,373.414 608.5,373.5 Z"/></g>
<g><path style="opacity:0.612" fill="#a1a089" d="M 611.5,365.5 C 613.388,369.694 612.388,373.194 608.5,376C 612.241,377.014 615.907,377.847 619.5,378.5C 614.987,378.736 610.653,378.736 606.5,378.5C 606.392,376.486 607.058,374.82 608.5,373.5C 611.172,371.609 612.172,368.942 611.5,365.5 Z"/></g>
<g><path style="opacity:0.222" fill="#969272" d="M 32.5,377.5 C 36.8333,377.5 41.1667,377.5 45.5,377.5C 41.1667,380.167 36.8333,380.167 32.5,377.5 Z"/></g>
<g><path style="opacity:0.078" fill="#636058" d="M 74.5,373.5 C 73.8592,374.482 73.1925,375.482 72.5,376.5C 82.8119,377.499 93.1452,377.832 103.5,377.5C 93.008,378.659 82.3414,378.825 71.5,378C 70.5128,375.448 71.5128,373.948 74.5,373.5 Z"/></g>
<g><path style="opacity:0.063" fill="#5d5b55" d="M 144.5,372.5 C 145.391,373.11 146.391,373.443 147.5,373.5C 147.33,374.822 147.663,375.989 148.5,377C 150.81,377.497 153.143,377.663 155.5,377.5C 155.833,377.5 156.167,377.5 156.5,377.5C 153.696,378.638 150.696,378.805 147.5,378C 145.84,376.512 144.84,374.679 144.5,372.5 Z"/></g>
<g><path style="opacity:0.098" fill="#605f55" d="M 173.5,374.5 C 173.5,375.5 173.5,376.5 173.5,377.5C 178.5,377.5 183.5,377.5 188.5,377.5C 183.36,378.488 178.026,378.821 172.5,378.5C 172.232,376.901 172.566,375.568 173.5,374.5 Z"/></g>
<g><path style="opacity:0.512" fill="#bab8ac" d="M 291.5,368.5 C 290.89,369.391 290.557,370.391 290.5,371.5C 289.167,373.5 287.5,375.167 285.5,376.5C 283.847,376.66 282.514,377.326 281.5,378.5C 274.414,380.854 268.414,379.187 263.5,373.5C 265.711,374.037 267.711,375.037 269.5,376.5C 274.968,377.928 280.301,377.595 285.5,375.5C 285.238,374.022 285.571,372.689 286.5,371.5C 287.695,369.703 289.362,368.703 291.5,368.5 Z"/></g>
<g><path style="opacity:0.02" fill="#55423e" d="M 285.5,376.5 C 284.713,378.104 283.38,378.771 281.5,378.5C 282.514,377.326 283.847,376.66 285.5,376.5 Z"/></g>
<g><path style="opacity:0.094" fill="#6a685e" d="M 429.5,372.5 C 429.249,374.17 428.582,375.67 427.5,377C 432.155,377.499 436.821,377.666 441.5,377.5C 436.684,378.65 431.684,378.816 426.5,378C 425.001,374.967 426.001,373.134 429.5,372.5 Z"/></g>
<g><path style="opacity:0.667" fill="#93918c" d="M 133.5,378.5 C 134.167,378.5 134.833,378.5 135.5,378.5C 134.557,381.109 132.89,383.109 130.5,384.5C 130.654,382.03 131.654,380.03 133.5,378.5 Z"/></g>
<g><path style="opacity:0.651" fill="#928f8a" d="M 321.5,376.5 C 320.829,380.363 318.495,382.696 314.5,383.5C 314.5,382.5 314.5,381.5 314.5,380.5C 317.216,379.799 319.55,378.465 321.5,376.5 Z"/></g>
<g><path style="opacity:0.596" fill="#a19f8c" d="M 307.5,377.5 C 306.777,381.565 304.777,384.899 301.5,387.5C 303.142,383.879 305.142,380.546 307.5,377.5 Z"/></g>
<g><path style="opacity:0.345" fill="#aca78c" d="M 48.5,373.5 C 48.0604,377.109 48.7271,380.776 50.5,384.5C 51.2876,383.23 52.2876,382.23 53.5,381.5C 53.3882,384.977 51.7215,386.477 48.5,386C 48.162,382.746 47.162,379.912 45.5,377.5C 46.7888,376.363 47.7888,375.03 48.5,373.5 Z"/></g>
<g><path style="opacity:0.874" fill="#dad7c8" d="M 383.5,356.5 C 383.826,360.884 383.492,365.217 382.5,369.5C 381.598,372.231 380.598,374.898 379.5,377.5C 379.833,378.5 380.167,379.5 380.5,380.5C 383.215,378.736 386.215,377.736 389.5,377.5C 384.626,380.107 380.292,383.44 376.5,387.5C 375.167,387.5 373.833,387.5 372.5,387.5C 372.704,385.315 373.37,383.315 374.5,381.5C 377.036,377.091 379.036,372.425 380.5,367.5C 382.163,365.562 382.829,363.228 382.5,360.5C 382.232,358.901 382.566,357.568 383.5,356.5 Z"/></g>
<g><path style="opacity:0.753" fill="#b0afa2" d="M 568.5,362.5 C 567.625,367.997 566.125,373.33 564,378.5C 557.18,381.484 551.346,385.818 546.5,391.5C 543.911,390.278 543.077,388.278 544,385.5C 548.854,379.456 552.354,372.789 554.5,365.5C 554.196,368.522 553.696,371.522 553,374.5C 550.578,379.343 548.245,384.01 546,388.5C 548.67,387.776 550.17,386.109 550.5,383.5C 554.983,382.17 558.483,379.503 561,375.5C 561.333,375.833 561.667,376.167 562,376.5C 563.861,373.825 564.861,370.825 565,367.5C 566.626,366.045 567.792,364.378 568.5,362.5 Z"/></g>
<g><path style="opacity:0.047" fill="#4e4b44" d="M 374.5,381.5 C 373.37,383.315 372.704,385.315 372.5,387.5C 373.833,387.5 375.167,387.5 376.5,387.5C 375.081,388.451 373.415,388.784 371.5,388.5C 370.908,385.369 371.908,383.036 374.5,381.5 Z"/></g>
<g><path style="opacity:0.443" fill="#84827a" d="M 130.5,385.5 C 129.298,387.392 127.965,389.226 126.5,391C 125.002,391.585 124.002,391.085 123.5,389.5C 123.833,389.5 124.167,389.5 124.5,389.5C 126.035,387.565 128.035,386.232 130.5,385.5 Z"/></g>
<g><path style="opacity:0.067" fill="#4e4d37" d="M 301.5,387.5 C 301.5,389.5 302.5,390.5 304.5,390.5C 303.749,391.573 302.749,391.74 301.5,391C 300.209,389.708 300.209,388.542 301.5,387.5 Z"/></g>
</svg>
